# Blender v2.79 (sub 0) OBJ File: 'sphere.blend'
# www.blender.org
mtllib sphere.mtl
o Sphere
v 0.000000 0.098079 -0.019509
v 0.000000 0.092388 -0.038268
v 0.000000 0.070711 -0.070711
v 0.000000 0.055557 -0.083147
v 0.000000 0.038268 -0.092388
v 0.000000 0.019509 -0.098079
v 0.000000 0.000000 -0.100000
v 0.000000 -0.019509 -0.098079
v 0.000000 -0.038268 -0.092388
v 0.000000 -0.055557 -0.083147
v 0.000000 -0.070711 -0.070711
v 0.000000 -0.083147 -0.055557
v 0.000000 -0.092388 -0.038268
v 0.000000 -0.098079 -0.019509
v 0.007466 0.098079 -0.018024
v 0.014645 0.092388 -0.035355
v 0.021261 0.083147 -0.051328
v 0.027060 0.070711 -0.065328
v 0.031819 0.055557 -0.076818
v 0.035355 0.038268 -0.085355
v 0.037533 0.019509 -0.090613
v 0.038268 0.000000 -0.092388
v 0.037533 -0.019509 -0.090613
v 0.035355 -0.038268 -0.085355
v 0.031819 -0.055557 -0.076818
v 0.027060 -0.070711 -0.065328
v 0.021261 -0.083147 -0.051328
v 0.014645 -0.092388 -0.035355
v 0.007466 -0.098079 -0.018024
v 0.013795 0.098079 -0.013795
v 0.027060 0.092388 -0.027060
v 0.039285 0.083147 -0.039285
v 0.050000 0.070711 -0.050000
v 0.058794 0.055557 -0.058794
v 0.065328 0.038268 -0.065328
v 0.069352 0.019509 -0.069352
v 0.070711 0.000000 -0.070711
v 0.069352 -0.019509 -0.069352
v 0.065328 -0.038268 -0.065328
v 0.058794 -0.055557 -0.058794
v 0.050000 -0.070711 -0.050000
v 0.039285 -0.083147 -0.039285
v 0.027060 -0.092388 -0.027060
v 0.013795 -0.098079 -0.013795
v 0.018024 0.098079 -0.007466
v 0.035355 0.092388 -0.014645
v 0.051328 0.083147 -0.021261
v 0.065328 0.070711 -0.027060
v 0.076818 0.055557 -0.031819
v 0.085355 0.038268 -0.035355
v 0.090613 0.019509 -0.037533
v 0.092388 0.000000 -0.038268
v 0.090613 -0.019509 -0.037533
v 0.085355 -0.038268 -0.035355
v 0.076818 -0.055557 -0.031819
v 0.065328 -0.070711 -0.027060
v 0.051328 -0.083147 -0.021261
v 0.035355 -0.092388 -0.014645
v 0.018024 -0.098079 -0.007466
v 0.019509 0.098079 0.000000
v 0.038268 0.092388 0.000000
v 0.055557 0.083147 0.000000
v 0.070711 0.070711 0.000000
v 0.083147 0.055557 0.000000
v 0.092388 0.038268 0.000000
v 0.098079 0.019509 0.000000
v 0.100000 0.000000 0.000000
v 0.098079 -0.019509 0.000000
v 0.092388 -0.038268 0.000000
v 0.083147 -0.055557 0.000000
v 0.070711 -0.070711 0.000000
v 0.055557 -0.083147 0.000000
v 0.038268 -0.092388 0.000000
v 0.019509 -0.098079 0.000000
v 0.018024 0.098079 0.007466
v 0.035355 0.092388 0.014645
v 0.051328 0.083147 0.021261
v 0.065328 0.070711 0.027060
v 0.076818 0.055557 0.031819
v 0.085355 0.038268 0.035355
v 0.090613 0.019509 0.037533
v 0.092388 0.000000 0.038268
v 0.090613 -0.019509 0.037533
v 0.085355 -0.038268 0.035355
v 0.076818 -0.055557 0.031819
v 0.065328 -0.070711 0.027060
v 0.051328 -0.083147 0.021261
v 0.035355 -0.092388 0.014645
v 0.018024 -0.098079 0.007466
v 0.013795 0.098079 0.013795
v 0.027060 0.092388 0.027060
v 0.039285 0.083147 0.039285
v 0.050000 0.070711 0.050000
v 0.058794 0.055557 0.058794
v 0.065328 0.038268 0.065328
v 0.069352 0.019509 0.069352
v 0.070711 0.000000 0.070711
v 0.069352 -0.019509 0.069352
v 0.065328 -0.038268 0.065328
v 0.058794 -0.055557 0.058794
v 0.050000 -0.070711 0.050000
v 0.039285 -0.083147 0.039285
v 0.027060 -0.092388 0.027060
v 0.013795 -0.098079 0.013795
v 0.007466 0.098079 0.018024
v 0.014645 0.092388 0.035355
v 0.021261 0.083147 0.051328
v 0.027060 0.070711 0.065328
v 0.031819 0.055557 0.076818
v 0.035355 0.038268 0.085355
v 0.037533 0.019509 0.090613
v 0.038268 0.000000 0.092388
v 0.037533 -0.019509 0.090613
v 0.035355 -0.038268 0.085355
v 0.031819 -0.055557 0.076818
v 0.027060 -0.070711 0.065328
v 0.021261 -0.083147 0.051328
v 0.014645 -0.092388 0.035355
v 0.007466 -0.098079 0.018024
v -0.000000 0.098079 0.019509
v -0.000000 0.092388 0.038268
v -0.000000 0.083147 0.055557
v -0.000000 0.070711 0.070711
v -0.000000 0.055557 0.083147
v -0.000000 0.038268 0.092388
v -0.000000 0.019509 0.098079
v -0.000000 0.000000 0.100000
v -0.000000 -0.019509 0.098079
v -0.000000 -0.038268 0.092388
v -0.000000 -0.055557 0.083147
v -0.000000 -0.070711 0.070711
v -0.000000 -0.083147 0.055557
v -0.000000 -0.092388 0.038268
v -0.000000 -0.098079 0.019509
v 0.000000 -0.100000 0.000000
v -0.007466 0.098079 0.018024
v -0.014645 0.092388 0.035355
v -0.021261 0.083147 0.051328
v -0.027060 0.070711 0.065328
v -0.031819 0.055557 0.076818
v -0.035355 0.038268 0.085355
v -0.037533 0.019509 0.090613
v -0.038268 0.000000 0.092388
v -0.037533 -0.019509 0.090613
v -0.035355 -0.038268 0.085355
v -0.031819 -0.055557 0.076818
v -0.027060 -0.070711 0.065328
v -0.021261 -0.083147 0.051328
v -0.014645 -0.092388 0.035355
v -0.007466 -0.098079 0.018024
v -0.013795 0.098079 0.013795
v -0.027060 0.092388 0.027060
v -0.039285 0.083147 0.039285
v -0.050000 0.070711 0.050000
v -0.058794 0.055557 0.058794
v -0.065328 0.038268 0.065328
v -0.069352 0.019509 0.069352
v -0.070711 0.000000 0.070711
v -0.069352 -0.019509 0.069352
v -0.065328 -0.038268 0.065328
v -0.058794 -0.055557 0.058794
v -0.050000 -0.070711 0.050000
v -0.039285 -0.083147 0.039285
v -0.027060 -0.092388 0.027060
v -0.013795 -0.098079 0.013795
v -0.000000 0.100000 0.000000
v -0.018024 0.098079 0.007466
v -0.035355 0.092388 0.014645
v -0.051328 0.083147 0.021261
v -0.065328 0.070711 0.027060
v -0.076818 0.055557 0.031819
v -0.085355 0.038268 0.035355
v -0.090613 0.019509 0.037533
v -0.092388 0.000000 0.038268
v -0.090613 -0.019509 0.037533
v -0.085355 -0.038268 0.035355
v -0.076818 -0.055557 0.031819
v -0.065328 -0.070711 0.027060
v -0.051328 -0.083147 0.021261
v -0.035355 -0.092388 0.014645
v -0.018024 -0.098079 0.007466
v -0.019509 0.098079 0.000000
v -0.038268 0.092388 0.000000
v -0.055557 0.083147 0.000000
v -0.070711 0.070711 0.000000
v -0.083147 0.055557 -0.000000
v -0.092388 0.038268 -0.000000
v -0.098079 0.019509 -0.000000
v -0.100000 0.000000 0.000000
v -0.098079 -0.019509 -0.000000
v -0.092388 -0.038268 -0.000000
v -0.083147 -0.055557 -0.000000
v -0.070711 -0.070711 0.000000
v -0.055557 -0.083147 0.000000
v -0.038268 -0.092388 0.000000
v -0.019509 -0.098079 0.000000
v -0.018024 0.098079 -0.007466
v -0.035355 0.092388 -0.014645
v -0.051328 0.083147 -0.021261
v -0.065328 0.070711 -0.027060
v -0.076818 0.055557 -0.031819
v -0.085355 0.038268 -0.035355
v -0.090613 0.019509 -0.037533
v -0.092388 0.000000 -0.038268
v -0.090613 -0.019509 -0.037533
v -0.085355 -0.038268 -0.035355
v -0.076818 -0.055557 -0.031819
v -0.065328 -0.070711 -0.027060
v -0.051328 -0.083147 -0.021261
v -0.035355 -0.092388 -0.014645
v -0.018024 -0.098079 -0.007466
v -0.013795 0.098079 -0.013795
v -0.027060 0.092388 -0.027060
v -0.039285 0.083147 -0.039285
v -0.050000 0.070711 -0.050000
v -0.058794 0.055557 -0.058794
v -0.065328 0.038268 -0.065328
v -0.069352 0.019509 -0.069352
v -0.070711 0.000000 -0.070711
v -0.069352 -0.019509 -0.069352
v -0.065328 -0.038268 -0.065328
v -0.058794 -0.055557 -0.058794
v -0.050000 -0.070711 -0.050000
v -0.039285 -0.083147 -0.039285
v -0.027060 -0.092388 -0.027060
v -0.013795 -0.098079 -0.013795
v -0.007466 0.098079 -0.018024
v -0.014645 0.092388 -0.035355
v -0.021261 0.083147 -0.051328
v -0.027060 0.070711 -0.065328
v -0.031819 0.055557 -0.076818
v -0.035355 0.038268 -0.085355
v -0.037533 0.019509 -0.090613
v -0.038268 0.000000 -0.092388
v -0.037533 -0.019509 -0.090613
v -0.035355 -0.038268 -0.085355
v -0.031819 -0.055557 -0.076818
v -0.027060 -0.070711 -0.065328
v -0.021261 -0.083147 -0.051328
v -0.014645 -0.092388 -0.035355
v -0.007466 -0.098079 -0.018024
v 0.000000 0.083147 -0.055557
vn 0.0934 -0.8781 -0.4693
vn 0.1870 0.2852 -0.9401
vn 0.0576 -0.9553 -0.2898
vn 0.1942 0.0962 -0.9762
vn 0.0195 0.9950 -0.0980
vn 0.0195 -0.9950 -0.0980
vn 0.1942 -0.0962 -0.9762
vn 0.0576 0.9553 -0.2898
vn 0.1870 -0.2852 -0.9401
vn 0.0934 0.8781 -0.4693
vn 0.1728 -0.4643 -0.8687
vn 0.1252 0.7669 -0.6294
vn 0.1520 -0.6270 -0.7640
vn 0.1520 0.6270 -0.7640
vn 0.1252 -0.7669 -0.6294
vn 0.1728 0.4643 -0.8687
vn 0.3565 -0.7669 -0.5336
vn 0.4921 0.4643 -0.7364
vn 0.2659 -0.8781 -0.3979
vn 0.5325 0.2852 -0.7969
vn 0.1642 -0.9553 -0.2457
vn 0.5530 0.0962 -0.8276
vn 0.0555 0.9950 -0.0831
vn 0.0555 -0.9950 -0.0831
vn 0.5530 -0.0962 -0.8276
vn 0.1642 0.9553 -0.2457
vn 0.5325 -0.2852 -0.7969
vn 0.2659 0.8781 -0.3979
vn 0.4921 -0.4643 -0.7364
vn 0.3565 0.7669 -0.5336
vn 0.4328 -0.6270 -0.6477
vn 0.4328 0.6270 -0.6477
vn 0.2457 0.9553 -0.1642
vn 0.7969 -0.2852 -0.5325
vn 0.3979 0.8781 -0.2659
vn 0.7364 -0.4643 -0.4921
vn 0.5336 0.7669 -0.3565
vn 0.6477 -0.6270 -0.4328
vn 0.6477 0.6270 -0.4328
vn 0.5336 -0.7669 -0.3565
vn 0.7364 0.4643 -0.4921
vn 0.3979 -0.8781 -0.2659
vn 0.7969 0.2852 -0.5325
vn 0.2457 -0.9553 -0.1642
vn 0.8276 0.0962 -0.5530
vn 0.0831 0.9950 -0.0555
vn 0.0831 -0.9950 -0.0555
vn 0.8276 -0.0962 -0.5530
vn 0.8687 0.4643 -0.1728
vn 0.4693 -0.8781 -0.0934
vn 0.9401 0.2852 -0.1870
vn 0.2898 -0.9553 -0.0576
vn 0.9762 0.0962 -0.1942
vn 0.0980 0.9950 -0.0195
vn 0.0980 -0.9950 -0.0195
vn 0.9762 -0.0962 -0.1942
vn 0.2898 0.9553 -0.0576
vn 0.9401 -0.2852 -0.1870
vn 0.4693 0.8781 -0.0934
vn 0.8687 -0.4643 -0.1728
vn 0.6294 0.7669 -0.1252
vn 0.7640 -0.6270 -0.1520
vn 0.7640 0.6270 -0.1520
vn 0.6294 -0.7669 -0.1252
vn 0.9401 -0.2852 0.1870
vn 0.4693 0.8781 0.0934
vn 0.8687 -0.4643 0.1728
vn 0.6294 0.7669 0.1252
vn 0.7640 -0.6270 0.1520
vn 0.7640 0.6270 0.1520
vn 0.6294 -0.7669 0.1252
vn 0.8687 0.4643 0.1728
vn 0.4693 -0.8781 0.0934
vn 0.9401 0.2852 0.1870
vn 0.2898 -0.9553 0.0576
vn 0.9762 0.0962 0.1942
vn 0.0980 0.9950 0.0195
vn 0.0980 -0.9950 0.0195
vn 0.9762 -0.0962 0.1942
vn 0.2898 0.9553 0.0576
vn 0.3979 -0.8781 0.2659
vn 0.7969 0.2852 0.5325
vn 0.2457 -0.9553 0.1642
vn 0.8276 0.0962 0.5530
vn 0.0831 0.9950 0.0555
vn 0.0831 -0.9950 0.0555
vn 0.8276 -0.0962 0.5530
vn 0.2457 0.9553 0.1642
vn 0.7969 -0.2852 0.5325
vn 0.3979 0.8781 0.2659
vn 0.7364 -0.4643 0.4921
vn 0.5336 0.7669 0.3565
vn 0.6477 -0.6270 0.4328
vn 0.6477 0.6270 0.4328
vn 0.5336 -0.7669 0.3565
vn 0.7364 0.4643 0.4921
vn 0.4921 -0.4643 0.7364
vn 0.3565 0.7669 0.5336
vn 0.4328 -0.6270 0.6477
vn 0.4328 0.6270 0.6477
vn 0.3565 -0.7669 0.5336
vn 0.4921 0.4643 0.7364
vn 0.2659 -0.8781 0.3979
vn 0.5325 0.2852 0.7969
vn 0.1642 -0.9553 0.2457
vn 0.5530 0.0962 0.8276
vn 0.0555 0.9950 0.0831
vn 0.0555 -0.9950 0.0831
vn 0.5530 -0.0962 0.8276
vn 0.1642 0.9553 0.2457
vn 0.5325 -0.2852 0.7969
vn 0.2659 0.8781 0.3979
vn 0.0576 -0.9553 0.2898
vn 0.1942 0.0962 0.9762
vn 0.0195 0.9950 0.0980
vn 0.0195 -0.9950 0.0980
vn 0.1942 -0.0962 0.9762
vn 0.0576 0.9553 0.2898
vn 0.1870 -0.2852 0.9401
vn 0.0934 0.8781 0.4693
vn 0.1728 -0.4643 0.8687
vn 0.1252 0.7669 0.6294
vn 0.1520 -0.6270 0.7640
vn 0.1520 0.6270 0.7640
vn 0.1252 -0.7669 0.6294
vn 0.1728 0.4643 0.8687
vn 0.0934 -0.8781 0.4693
vn 0.1870 0.2852 0.9401
vn -0.1252 0.7669 0.6294
vn -0.1520 -0.6270 0.7640
vn -0.1520 0.6270 0.7640
vn -0.1252 -0.7669 0.6294
vn -0.1728 0.4643 0.8687
vn -0.0934 -0.8781 0.4693
vn -0.1870 0.2852 0.9401
vn -0.0576 -0.9553 0.2898
vn -0.1942 0.0962 0.9762
vn -0.0195 0.9950 0.0980
vn -0.0195 -0.9950 0.0980
vn -0.1942 -0.0962 0.9762
vn -0.0576 0.9553 0.2898
vn -0.1870 -0.2852 0.9401
vn -0.0934 0.8781 0.4693
vn -0.1728 -0.4643 0.8687
vn -0.5530 0.0962 0.8276
vn -0.0555 0.9950 0.0831
vn -0.0555 -0.9950 0.0831
vn -0.5530 -0.0962 0.8276
vn -0.1642 0.9553 0.2457
vn -0.5325 -0.2852 0.7969
vn -0.2659 0.8781 0.3979
vn -0.4921 -0.4643 0.7364
vn -0.3565 0.7669 0.5336
vn -0.4328 -0.6270 0.6477
vn -0.4328 0.6270 0.6477
vn -0.3565 -0.7669 0.5336
vn -0.4921 0.4643 0.7364
vn -0.2659 -0.8781 0.3979
vn -0.5325 0.2852 0.7969
vn -0.1642 -0.9553 0.2457
vn -0.6477 -0.6270 0.4328
vn -0.6477 0.6270 0.4328
vn -0.5336 -0.7669 0.3565
vn -0.7364 0.4643 0.4921
vn -0.3979 -0.8781 0.2659
vn -0.7969 0.2852 0.5325
vn -0.2457 -0.9553 0.1642
vn -0.8276 0.0962 0.5530
vn -0.0831 0.9950 0.0555
vn -0.0831 -0.9950 0.0555
vn -0.8276 -0.0962 0.5530
vn -0.2457 0.9553 0.1642
vn -0.7969 -0.2852 0.5325
vn -0.3979 0.8781 0.2659
vn -0.7364 -0.4643 0.4921
vn -0.5336 0.7669 0.3565
vn -0.0980 0.9950 0.0195
vn -0.0980 -0.9950 0.0195
vn -0.9762 -0.0962 0.1942
vn -0.2898 0.9553 0.0576
vn -0.9401 -0.2852 0.1870
vn -0.4693 0.8781 0.0934
vn -0.8687 -0.4643 0.1728
vn -0.6294 0.7669 0.1252
vn -0.7640 -0.6270 0.1520
vn -0.7640 0.6270 0.1520
vn -0.6294 -0.7669 0.1252
vn -0.8687 0.4643 0.1728
vn -0.4693 -0.8781 0.0934
vn -0.9401 0.2852 0.1870
vn -0.2898 -0.9553 0.0576
vn -0.9762 0.0962 0.1942
vn -0.7640 0.6270 -0.1520
vn -0.6294 -0.7669 -0.1252
vn -0.8687 0.4643 -0.1728
vn -0.4693 -0.8781 -0.0934
vn -0.9401 0.2852 -0.1870
vn -0.2898 -0.9553 -0.0576
vn -0.9762 0.0962 -0.1942
vn -0.0980 0.9950 -0.0195
vn -0.0980 -0.9950 -0.0195
vn -0.9762 -0.0962 -0.1942
vn -0.2898 0.9553 -0.0576
vn -0.9401 -0.2852 -0.1870
vn -0.4693 0.8781 -0.0934
vn -0.8687 -0.4643 -0.1728
vn -0.6294 0.7669 -0.1252
vn -0.7640 -0.6270 -0.1520
vn -0.8276 -0.0961 -0.5530
vn -0.2457 0.9553 -0.1642
vn -0.7969 -0.2852 -0.5325
vn -0.3979 0.8781 -0.2659
vn -0.7364 -0.4643 -0.4921
vn -0.5336 0.7669 -0.3565
vn -0.6477 -0.6270 -0.4328
vn -0.6477 0.6270 -0.4328
vn -0.5336 -0.7669 -0.3565
vn -0.7364 0.4643 -0.4921
vn -0.3979 -0.8781 -0.2659
vn -0.7969 0.2852 -0.5325
vn -0.2457 -0.9553 -0.1642
vn -0.8276 0.0962 -0.5530
vn -0.0831 0.9950 -0.0555
vn -0.0831 -0.9950 -0.0555
vn -0.3565 -0.7669 -0.5336
vn -0.4921 0.4643 -0.7364
vn -0.2659 -0.8781 -0.3979
vn -0.5325 0.2852 -0.7969
vn -0.1642 -0.9553 -0.2457
vn -0.5530 0.0962 -0.8276
vn -0.0555 0.9950 -0.0831
vn -0.0555 -0.9950 -0.0831
vn -0.5530 -0.0962 -0.8276
vn -0.1642 0.9553 -0.2457
vn -0.5325 -0.2852 -0.7969
vn -0.2659 0.8781 -0.3979
vn -0.4921 -0.4643 -0.7364
vn -0.3565 0.7669 -0.5336
vn -0.4328 -0.6270 -0.6477
vn -0.4328 0.6270 -0.6477
vn -0.1870 -0.2852 -0.9401
vn -0.0934 0.8781 -0.4693
vn -0.1728 -0.4643 -0.8687
vn -0.1252 0.7669 -0.6294
vn -0.1520 -0.6270 -0.7640
vn -0.1520 0.6270 -0.7640
vn -0.1252 -0.7669 -0.6294
vn -0.1728 0.4643 -0.8687
vn -0.0934 -0.8781 -0.4693
vn -0.1870 0.2852 -0.9401
vn -0.0576 -0.9553 -0.2898
vn -0.1942 0.0962 -0.9762
vn -0.0195 0.9950 -0.0980
vn -0.0195 -0.9950 -0.0980
vn -0.1942 -0.0962 -0.9762
vn -0.0576 0.9553 -0.2898
usemtl None
s off
f 13//1 12//1 27//1 28//1
f 6//2 5//2 20//2 21//2
f 14//3 13//3 28//3 29//3
f 7//4 6//4 21//4 22//4
f 1//5 166//5 15//5
f 135//6 14//6 29//6
f 8//7 7//7 22//7 23//7
f 2//8 1//8 15//8 16//8
f 9//9 8//9 23//9 24//9
f 242//10 2//10 16//10 17//10
f 10//11 9//11 24//11 25//11
f 3//12 242//12 17//12 18//12
f 11//13 10//13 25//13 26//13
f 4//14 3//14 18//14 19//14
f 12//15 11//15 26//15 27//15
f 5//16 4//16 19//16 20//16
f 27//17 26//17 41//17 42//17
f 20//18 19//18 34//18 35//18
f 28//19 27//19 42//19 43//19
f 21//20 20//20 35//20 36//20
f 29//21 28//21 43//21 44//21
f 22//22 21//22 36//22 37//22
f 15//23 166//23 30//23
f 135//24 29//24 44//24
f 23//25 22//25 37//25 38//25
f 16//26 15//26 30//26 31//26
f 24//27 23//27 38//27 39//27
f 17//28 16//28 31//28 32//28
f 25//29 24//29 39//29 40//29
f 18//30 17//30 32//30 33//30
f 26//31 25//31 40//31 41//31
f 19//32 18//32 33//32 34//32
f 31//33 30//33 45//33 46//33
f 39//34 38//34 53//34 54//34
f 32//35 31//35 46//35 47//35
f 40//36 39//36 54//36 55//36
f 33//37 32//37 47//37 48//37
f 41//38 40//38 55//38 56//38
f 34//39 33//39 48//39 49//39
f 42//40 41//40 56//40 57//40
f 35//41 34//41 49//41 50//41
f 43//42 42//42 57//42 58//42
f 36//43 35//43 50//43 51//43
f 44//44 43//44 58//44 59//44
f 37//45 36//45 51//45 52//45
f 30//46 166//46 45//46
f 135//47 44//47 59//47
f 38//48 37//48 52//48 53//48
f 50//49 49//49 64//49 65//49
f 58//50 57//50 72//50 73//50
f 51//51 50//51 65//51 66//51
f 59//52 58//52 73//52 74//52
f 52//53 51//53 66//53 67//53
f 45//54 166//54 60//54
f 135//55 59//55 74//55
f 53//56 52//56 67//56 68//56
f 46//57 45//57 60//57 61//57
f 54//58 53//58 68//58 69//58
f 47//59 46//59 61//59 62//59
f 55//60 54//60 69//60 70//60
f 48//61 47//61 62//61 63//61
f 56//62 55//62 70//62 71//62
f 49//63 48//63 63//63 64//63
f 57//64 56//64 71//64 72//64
f 69//65 68//65 83//65 84//65
f 62//66 61//66 76//66 77//66
f 70//67 69//67 84//67 85//67
f 63//68 62//68 77//68 78//68
f 71//69 70//69 85//69 86//69
f 64//70 63//70 78//70 79//70
f 72//71 71//71 86//71 87//71
f 65//72 64//72 79//72 80//72
f 73//73 72//73 87//73 88//73
f 66//74 65//74 80//74 81//74
f 74//75 73//75 88//75 89//75
f 67//76 66//76 81//76 82//76
f 60//77 166//77 75//77
f 135//78 74//78 89//78
f 68//79 67//79 82//79 83//79
f 61//80 60//80 75//80 76//80
f 88//81 87//81 102//81 103//81
f 81//82 80//82 95//82 96//82
f 89//83 88//83 103//83 104//83
f 82//84 81//84 96//84 97//84
f 75//85 166//85 90//85
f 135//86 89//86 104//86
f 83//87 82//87 97//87 98//87
f 76//88 75//88 90//88 91//88
f 84//89 83//89 98//89 99//89
f 77//90 76//90 91//90 92//90
f 85//91 84//91 99//91 100//91
f 78//92 77//92 92//92 93//92
f 86//93 85//93 100//93 101//93
f 79//94 78//94 93//94 94//94
f 87//95 86//95 101//95 102//95
f 80//96 79//96 94//96 95//96
f 100//97 99//97 114//97 115//97
f 93//98 92//98 107//98 108//98
f 101//99 100//99 115//99 116//99
f 94//100 93//100 108//100 109//100
f 102//101 101//101 116//101 117//101
f 95//102 94//102 109//102 110//102
f 103//103 102//103 117//103 118//103
f 96//104 95//104 110//104 111//104
f 104//105 103//105 118//105 119//105
f 97//106 96//106 111//106 112//106
f 90//107 166//107 105//107
f 135//108 104//108 119//108
f 98//109 97//109 112//109 113//109
f 91//110 90//110 105//110 106//110
f 99//111 98//111 113//111 114//111
f 92//112 91//112 106//112 107//112
f 119//113 118//113 133//113 134//113
f 112//114 111//114 126//114 127//114
f 105//115 166//115 120//115
f 135//116 119//116 134//116
f 113//117 112//117 127//117 128//117
f 106//118 105//118 120//118 121//118
f 114//119 113//119 128//119 129//119
f 107//120 106//120 121//120 122//120
f 115//121 114//121 129//121 130//121
f 108//122 107//122 122//122 123//122
f 116//123 115//123 130//123 131//123
f 109//124 108//124 123//124 124//124
f 117//125 116//125 131//125 132//125
f 110//126 109//126 124//126 125//126
f 118//127 117//127 132//127 133//127
f 111//128 110//128 125//128 126//128
f 123//129 122//129 138//129 139//129
f 131//130 130//130 146//130 147//130
f 124//131 123//131 139//131 140//131
f 132//132 131//132 147//132 148//132
f 125//133 124//133 140//133 141//133
f 133//134 132//134 148//134 149//134
f 126//135 125//135 141//135 142//135
f 134//136 133//136 149//136 150//136
f 127//137 126//137 142//137 143//137
f 120//138 166//138 136//138
f 135//139 134//139 150//139
f 128//140 127//140 143//140 144//140
f 121//141 120//141 136//141 137//141
f 129//142 128//142 144//142 145//142
f 122//143 121//143 137//143 138//143
f 130//144 129//144 145//144 146//144
f 143//145 142//145 157//145 158//145
f 136//146 166//146 151//146
f 135//147 150//147 165//147
f 144//148 143//148 158//148 159//148
f 137//149 136//149 151//149 152//149
f 145//150 144//150 159//150 160//150
f 138//151 137//151 152//151 153//151
f 146//152 145//152 160//152 161//152
f 139//153 138//153 153//153 154//153
f 147//154 146//154 161//154 162//154
f 140//155 139//155 154//155 155//155
f 148//156 147//156 162//156 163//156
f 141//157 140//157 155//157 156//157
f 149//158 148//158 163//158 164//158
f 142//159 141//159 156//159 157//159
f 150//160 149//160 164//160 165//160
f 162//161 161//161 177//161 178//161
f 155//162 154//162 170//162 171//162
f 163//163 162//163 178//163 179//163
f 156//164 155//164 171//164 172//164
f 164//165 163//165 179//165 180//165
f 157//166 156//166 172//166 173//166
f 165//167 164//167 180//167 181//167
f 158//168 157//168 173//168 174//168
f 151//169 166//169 167//169
f 135//170 165//170 181//170
f 159//171 158//171 174//171 175//171
f 152//172 151//172 167//172 168//172
f 160//173 159//173 175//173 176//173
f 153//174 152//174 168//174 169//174
f 161//175 160//175 176//175 177//175
f 154//176 153//176 169//176 170//176
f 167//177 166//177 182//177
f 135//178 181//178 196//178
f 175//179 174//179 189//179 190//179
f 168//180 167//180 182//180 183//180
f 176//181 175//181 190//181 191//181
f 169//182 168//182 183//182 184//182
f 177//183 176//183 191//183 192//183
f 170//184 169//184 184//184 185//184
f 178//185 177//185 192//185 193//185
f 171//186 170//186 185//186 186//186
f 179//187 178//187 193//187 194//187
f 172//188 171//188 186//188 187//188
f 180//189 179//189 194//189 195//189
f 173//190 172//190 187//190 188//190
f 181//191 180//191 195//191 196//191
f 174//192 173//192 188//192 189//192
f 186//193 185//193 200//193 201//193
f 194//194 193//194 208//194 209//194
f 187//195 186//195 201//195 202//195
f 195//196 194//196 209//196 210//196
f 188//197 187//197 202//197 203//197
f 196//198 195//198 210//198 211//198
f 189//199 188//199 203//199 204//199
f 182//200 166//200 197//200
f 135//201 196//201 211//201
f 190//202 189//202 204//202 205//202
f 183//203 182//203 197//203 198//203
f 191//204 190//204 205//204 206//204
f 184//205 183//205 198//205 199//205
f 192//206 191//206 206//206 207//206
f 185//207 184//207 199//207 200//207
f 193//208 192//208 207//208 208//208
f 205//209 204//209 219//209 220//209
f 198//210 197//210 212//210 213//210
f 206//211 205//211 220//211 221//211
f 199//212 198//212 213//212 214//212
f 207//213 206//213 221//213 222//213
f 200//214 199//214 214//214 215//214
f 208//215 207//215 222//215 223//215
f 201//216 200//216 215//216 216//216
f 209//217 208//217 223//217 224//217
f 202//218 201//218 216//218 217//218
f 210//219 209//219 224//219 225//219
f 203//220 202//220 217//220 218//220
f 211//221 210//221 225//221 226//221
f 204//222 203//222 218//222 219//222
f 197//223 166//223 212//223
f 135//224 211//224 226//224
f 224//225 223//225 238//225 239//225
f 217//226 216//226 231//226 232//226
f 225//227 224//227 239//227 240//227
f 218//228 217//228 232//228 233//228
f 226//229 225//229 240//229 241//229
f 219//230 218//230 233//230 234//230
f 212//231 166//231 227//231
f 135//232 226//232 241//232
f 220//233 219//233 234//233 235//233
f 213//234 212//234 227//234 228//234
f 221//235 220//235 235//235 236//235
f 214//236 213//236 228//236 229//236
f 222//237 221//237 236//237 237//237
f 215//238 214//238 229//238 230//238
f 223//239 222//239 237//239 238//239
f 216//240 215//240 230//240 231//240
f 236//241 235//241 8//241 9//241
f 229//242 228//242 2//242 242//242
f 237//243 236//243 9//243 10//243
f 230//244 229//244 242//244 3//244
f 238//245 237//245 10//245 11//245
f 231//246 230//246 3//246 4//246
f 239//247 238//247 11//247 12//247
f 232//248 231//248 4//248 5//248
f 240//249 239//249 12//249 13//249
f 233//250 232//250 5//250 6//250
f 241//251 240//251 13//251 14//251
f 234//252 233//252 6//252 7//252
f 227//253 166//253 1//253
f 135//254 241//254 14//254
f 235//255 234//255 7//255 8//255
f 228//256 227//256 1//256 2//256
